<?xml version="1.0" standalone="no"?>
<!DOCTYPE svg PUBLIC "-//W3C//DTD SVG 20010904//EN"
 "http://www.w3.org/TR/2001/REC-SVG-20010904/DTD/svg10.dtd">
<svg version="1.0" xmlns="http://www.w3.org/2000/svg"
 width="1024.000000pt" height="1280.000000pt" viewBox="0 0 1024.000000 1280.000000"
 preserveAspectRatio="xMidYMid meet">
<metadata>
Created by potrace 1.15, written by Peter Selinger 2001-2017
</metadata>
<g transform="translate(0.000000,1280.000000) scale(0.100000,-0.100000)"
fill="#FFFFFF" stroke="none">
<path d="M4888 12785 c-252 -64 -478 -336 -478 -575 0 -78 12 -118 52 -178 18
-27 33 -65 39 -105 29 -175 -52 -534 -133 -592 -71 -49 -421 -122 -967 -201
-372 -53 -575 -66 -661 -41 -30 9 -95 42 -145 73 -189 119 -281 121 -338 6
-53 -104 -72 -281 -64 -571 14 -465 94 -575 332 -456 50 25 114 49 144 55 121
23 389 7 836 -50 587 -75 761 -136 841 -291 45 -90 47 -133 47 -974 -1 -1199
-39 -2868 -88 -3880 -61 -1251 -174 -1889 -363 -2055 -156 -138 -698 -310
-975 -310 -468 0 -1047 365 -1715 1083 -191 205 -298 327 -295 335 6 19 346
100 593 141 130 22 160 30 145 38 -11 6 -279 128 -595 271 -316 143 -690 313
-830 376 -140 64 -258 116 -263 116 -5 0 -6 -44 -3 -102 4 -57 18 -319 31
-583 62 -1202 102 -1726 134 -1758 20 -20 57 86 131 378 67 265 143 535 150
535 3 0 29 -48 59 -107 369 -748 785 -1350 1155 -1673 402 -351 779 -520 1326
-595 593 -82 1178 -219 1415 -331 105 -50 201 -170 349 -439 87 -159 178 -290
218 -313 26 -15 29 -15 55 4 47 34 127 149 212 303 147 269 239 389 333 437
223 113 795 250 1397 334 361 50 563 106 806 224 596 288 1062 815 1583 1792
106 198 309 618 358 741 16 40 31 73 34 73 3 0 11 -17 17 -38 74 -242 103
-343 159 -562 90 -353 124 -454 145 -433 31 31 70 552 139 1857 17 313 30 575
30 582 0 7 -129 -46 -302 -125 -167 -75 -551 -249 -854 -386 -304 -138 -550
-252 -549 -254 2 -2 68 -14 147 -28 255 -43 606 -128 631 -152 4 -4 -106 -138
-245 -297 -598 -684 -1050 -1083 -1458 -1286 -313 -156 -566 -192 -864 -124
-275 64 -536 164 -674 258 -130 90 -228 406 -296 956 -73 584 -109 1349 -156
3297 -16 628 -24 2360 -12 2491 23 258 112 336 462 408 260 53 769 114 1022
123 200 7 260 -2 372 -60 59 -30 97 -42 138 -45 56 -4 59 -3 97 35 80 80 106
240 98 611 -4 200 -8 261 -24 323 -35 137 -79 185 -166 183 -55 -1 -107 -24
-237 -104 -101 -63 -150 -74 -315 -67 -357 14 -1251 169 -1411 244 -84 39
-161 311 -152 539 2 70 8 108 20 129 75 132 90 202 64 305 -50 202 -224 396
-421 469 -76 29 -190 36 -267 16z m212 -384 c54 -27 80 -73 80 -140 0 -64 -20
-105 -72 -144 -93 -71 -248 -54 -293 33 -22 43 -30 120 -16 162 33 100 186
145 301 89z"/>
</g>
</svg>
